<?xml version="1.0" encoding="UTF-8"?>
<svg version="1.1" viewBox="0 0 112.84 135.05" xmlns="http://www.w3.org/2000/svg">
    <defs>
        <linearGradient id="a" x1="-9.5158e-9" x2="112.84" y1="67.526" y2="67.526" gradientUnits="userSpaceOnUse">
            <stop stop-color="#3eadcf" offset="0"/>
            <stop stop-color="#abe9cd" offset="1"/>
        </linearGradient>
    </defs>
    <path d="m88.703 11.466c9.4 9.6 14.1 23.3 18.2 35.5 4.1 12.3 7.6 23.1 5.1 32.5-2.6 9.4-11.3 17.3-17.2 26.4-6 9.1-9.1 19.5-15.9 24.7-6.8 5.3-17.4 5.5-26.3 2.7-8.9-2.9-16.1-8.7-25.2-12.7-9.2-3.9-20.2-5.9-24.7-12.2s-2.4-16.8-0.7-26.4c1.7-9.6 3.1-18.1 7.7-24.3 4.6-6.1 12.3-9.8 19.7-20.5s14.5-28.4 25.1-34.6c10.7-6.1 24.8-0.6 34.2 8.9z"
          fill="url(#a)"/>
</svg>
