<?xml version="1.0" encoding="UTF-8"?>
<svg version="1.1" viewBox="0 0 301.87 135.05" xmlns="http://www.w3.org/2000/svg">
    <defs>
        <linearGradient id="a" x1="-9.5158e-9" x2="112.84" y1="67.526" y2="67.526"
                        gradientTransform="translate(.00048481 -.00031366)" gradientUnits="userSpaceOnUse">
            <stop stop-color="#3eadcf" offset="0"/>
            <stop stop-color="#abe9cd" offset="1"/>
        </linearGradient>
    </defs>
    <path d="m88.703 11.466c9.4 9.6 14.1 23.3 18.2 35.5 4.1 12.3 7.6 23.1 5.1 32.5-2.6 9.4-11.3 17.3-17.2 26.4-6 9.1-9.1 19.5-15.9 24.7-6.8 5.3-17.4 5.5-26.3 2.7-8.9-2.9-16.1-8.7-25.2-12.7-9.2-3.9-20.2-5.9-24.7-12.2s-2.4-16.8-0.7-26.4 3.1-18.1 7.7-24.3c4.6-6.1 12.3-9.8 19.7-20.5s14.5-28.4 25.1-34.6c10.7-6.1 24.8-0.6 34.2 8.9z"
          fill="url(#a)"/>
    <g aria-label="Lilay">
        <path d="m175.23 91.685v6.9546h-34.688v-61.141h8.2346v54.186z"/>
        <path d="m190.59 55.419v43.221h-7.5946v-43.221zm1.6213-13.568q0 1.1093-0.46934 2.0907-0.42666 0.93866-1.1947 1.7067-0.72533 0.72533-1.7493 1.152-0.98133 0.42666-2.0907 0.42666t-2.0907-0.42666q-0.93866-0.42666-1.664-1.152-0.72533-0.768-1.152-1.7067-0.42667-0.98133-0.42667-2.0907t0.42667-2.0907q0.42666-1.024 1.152-1.7493 0.72534-0.768 1.664-1.1947 0.98133-0.42666 2.0907-0.42666t2.0907 0.42666q1.024 0.42666 1.7493 1.1947 0.768 0.72533 1.1947 1.7493 0.46934 0.98133 0.46934 2.0907z"/>
        <path d="m210.9 35.792v62.848h-7.5946v-62.848z"/>
        <path d="m246.61 79.184q-5.248 0.17067-8.96 0.85333-3.6693 0.64-6.016 1.7067-2.304 1.0667-3.3707 2.5173-1.024 1.4507-1.024 3.2427 0 1.7067 0.55466 2.944 0.55466 1.2373 1.4933 2.048 0.98133 0.768 2.2613 1.152 1.3227 0.34133 2.816 0.34133 2.0053 0 3.6693-0.384 1.664-0.42666 3.1146-1.1947 1.4933-0.768 2.816-1.8347 1.3653-1.0667 2.6453-2.432zm-24.533-17.664q3.584-3.456 7.7226-5.1626t9.1733-1.7067q3.6267 0 6.4426 1.1947 2.816 1.1947 4.736 3.328 1.92 2.1333 2.9013 5.1626 0.98133 3.0293 0.98133 6.656v27.648h-3.3707q-1.1093 0-1.7067-0.34133-0.59733-0.384-0.93866-1.4507l-0.85333-4.096q-1.7067 1.5787-3.328 2.816-1.6213 1.1947-3.4133 2.048-1.792 0.81066-3.84 1.2373-2.0053 0.46933-4.48 0.46933-2.5173 0-4.736-0.68266-2.2187-0.72533-3.8827-2.1333-1.6213-1.408-2.6026-3.5413-0.93867-2.176-0.93867-5.12 0-2.56 1.408-4.9066 1.408-2.3893 4.5653-4.224 3.1573-1.8347 8.2346-2.9867 5.0773-1.1947 12.459-1.3653v-3.3707q0-5.0346-2.176-7.5946-2.176-2.6027-6.3573-2.6027-2.816 0-4.736 0.72533-1.8773 0.68266-3.2853 1.5787-1.3653 0.85333-2.3893 1.5787-0.98133 0.68266-1.9627 0.68266-0.768 0-1.3227-0.384-0.55466-0.42666-0.93866-1.024z"/>
        <path d="m301.86 55.419-24.107 55.978q-0.384 0.85333-0.98133 1.3653-0.55467 0.512-1.7493 0.512h-5.632l7.8933-17.152-17.835-40.704h6.5706q0.98133 0 1.536 0.512 0.59733 0.46933 0.81067 1.0667l11.563 27.221q0.68266 1.792 1.152 3.7547 0.59734-2.0053 1.28-3.7973l11.221-27.179q0.256-0.68266 0.85333-1.1093 0.64-0.46933 1.408-0.46933z"/>
    </g>
</svg>